HIERARCHY
ROOT Hips
{
  OFFSET 5.80788e-005 67.184 3.4734
  CHANNELS 6 Xposition Yposition Zposition Zrotation Xrotation Yrotation
  JOINT Chest
  {
    OFFSET 0 8.7983 -4.7612
    CHANNELS 6 Xposition Yposition Zposition Zrotation Xrotation Yrotation
    JOINT Chest2
    {
      OFFSET 0 8.0291 0.4195
      CHANNELS 6 Xposition Yposition Zposition Zrotation Xrotation Yrotation
      JOINT Chest3
      {
        OFFSET 0 9.9351 -2.2114
        CHANNELS 6 Xposition Yposition Zposition Zrotation Xrotation Yrotation
        JOINT Neck
        {
          OFFSET 0 22.3885 -0.4656
          CHANNELS 6 Xposition Yposition Zposition Zrotation Xrotation Yrotation
          JOINT Head
          {
            OFFSET -0.0001 12.643 3.4389
            CHANNELS 6 Xposition Yposition Zposition Zrotation Xrotation Yrotation
            End Site
            {
              OFFSET 0.0001 17.6655 0.5274
            }
          }
        }
        JOINT LeftCollar
        {
          OFFSET 2.2603 21.606 7.4023
          CHANNELS 6 Xposition Yposition Zposition Zrotation Xrotation Yrotation
          JOINT LeftShoulder
          {
            OFFSET 13.5163 -1.1332 -5.0146
            CHANNELS 6 Xposition Yposition Zposition Zrotation Xrotation Yrotation
            JOINT LeftElbow
            {
              OFFSET -0.0995 -28.05 -0.2431
              CHANNELS 6 Xposition Yposition Zposition Zrotation Xrotation Yrotation
              JOINT LeftWrist
              {
                OFFSET 0.0679 -23.3996 -0.1402
                CHANNELS 6 Xposition Yposition Zposition Zrotation Xrotation Yrotation
                JOINT LeftFinger1
                {
                  OFFSET 0.7932 -9.069 2.5189
                  CHANNELS 6 Xposition Yposition Zposition Zrotation Xrotation Yrotation
                  JOINT LeftFinger11
                  {
                    OFFSET -0.8272 -3.3923 0.5977
                    CHANNELS 6 Xposition Yposition Zposition Zrotation Xrotation Yrotation
                    JOINT LeftFinger12
                    {
                      OFFSET -0.5649 -2.3158 0.4082
                      CHANNELS 6 Xposition Yposition Zposition Zrotation Xrotation Yrotation
                      End Site
                      {
                        OFFSET -0.4919 -1.6479 0.2673
                      }
                    }
                  }
                }
                JOINT LeftFinger2
                {
                  OFFSET 0.9159 -9.2044 0.2193
                  CHANNELS 6 Xposition Yposition Zposition Zrotation Xrotation Yrotation
                  JOINT LeftFinger21
                  {
                    OFFSET 0.0117 -4.1944 -0.0248
                    CHANNELS 6 Xposition Yposition Zposition Zrotation Xrotation Yrotation
                    JOINT LeftFinger22
                    {
                      OFFSET 0.0071 -2.3249 -0.0142
                      CHANNELS 6 Xposition Yposition Zposition Zrotation Xrotation Yrotation
                      End Site
                      {
                        OFFSET -0.1475 -2.0882 0.0028
                      }
                    }
                  }
                }
                JOINT LeftFinger3
                {
                  OFFSET 0.6113 -8.7231 -2.0637
                  CHANNELS 6 Xposition Yposition Zposition Zrotation Xrotation Yrotation
                  JOINT LeftFinger31
                  {
                    OFFSET -0.1927 -3.8059 -0.2383
                    CHANNELS 6 Xposition Yposition Zposition Zrotation Xrotation Yrotation
                    JOINT LeftFinger32
                    {
                      OFFSET -0.1091 -2.1688 -0.1362
                      CHANNELS 6 Xposition Yposition Zposition Zrotation Xrotation Yrotation
                      End Site
                      {
                        OFFSET -0.2358 -1.9176 -0.0906
                      }
                    }
                  }
                }
                JOINT LeftFinger4
                {
                  OFFSET -0.6151 -8.0947 -3.5641
                  CHANNELS 6 Xposition Yposition Zposition Zrotation Xrotation Yrotation
                  JOINT LeftFinger41
                  {
                    OFFSET -0.4882 -2.341 -0.6462
                    CHANNELS 6 Xposition Yposition Zposition Zrotation Xrotation Yrotation
                    JOINT LeftFinger42
                    {
                      OFFSET -0.3575 -1.7167 -0.4742
                      CHANNELS 6 Xposition Yposition Zposition Zrotation Xrotation Yrotation
                      End Site
                      {
                        OFFSET -0.4187 -1.5237 -0.3496
                      }
                    }
                  }
                }
                JOINT LeftFinger0
                {
                  OFFSET -1.42 -1.8761 1.4223
                  CHANNELS 6 Xposition Yposition Zposition Zrotation Xrotation Yrotation
                  JOINT LeftFinger01
                  {
                    OFFSET -1.1471 -3.4929 2.6334
                    CHANNELS 6 Xposition Yposition Zposition Zrotation Xrotation Yrotation
                    JOINT LeftFinger02
                    {
                      OFFSET -0.823 -2.3 1.6571
                      CHANNELS 6 Xposition Yposition Zposition Zrotation Xrotation Yrotation
                      End Site
                      {
                        OFFSET -0.5822 -1.6914 1.1582
                      }
                    }
                  }
                }
              }
            }
          }
        }
        JOINT RightCollar
        {
          OFFSET -2.2603 21.606 7.4023
          CHANNELS 6 Xposition Yposition Zposition Zrotation Xrotation Yrotation
          JOINT RightShoulder
          {
            OFFSET -13.5187 -1.1334 -5.0155
            CHANNELS 6 Xposition Yposition Zposition Zrotation Xrotation Yrotation
            JOINT RightElbow
            {
              OFFSET 0.0994 -28.0499 -0.2431
              CHANNELS 6 Xposition Yposition Zposition Zrotation Xrotation Yrotation
              JOINT RightWrist
              {
                OFFSET -0.0679 -23.3996 -0.1402
                CHANNELS 6 Xposition Yposition Zposition Zrotation Xrotation Yrotation
                JOINT RightFinger1
                {
                  OFFSET -0.7932 -9.0691 2.5189
                  CHANNELS 6 Xposition Yposition Zposition Zrotation Xrotation Yrotation
                  JOINT RightFinger11
                  {
                    OFFSET 0.8272 -3.3923 0.5977
                    CHANNELS 6 Xposition Yposition Zposition Zrotation Xrotation Yrotation
                    JOINT RightFinger12
                    {
                      OFFSET 0.565 -2.3158 0.4082
                      CHANNELS 6 Xposition Yposition Zposition Zrotation Xrotation Yrotation
                      End Site
                      {
                        OFFSET 0.4919 -1.6479 0.2673
                      }
                    }
                  }
                }
                JOINT RightFinger2
                {
                  OFFSET -0.916 -9.2044 0.2193
                  CHANNELS 6 Xposition Yposition Zposition Zrotation Xrotation Yrotation
                  JOINT RightFinger21
                  {
                    OFFSET -0.0117 -4.1944 -0.0248
                    CHANNELS 6 Xposition Yposition Zposition Zrotation Xrotation Yrotation
                    JOINT RightFinger22
                    {
                      OFFSET -0.0071 -2.3249 -0.0142
                      CHANNELS 6 Xposition Yposition Zposition Zrotation Xrotation Yrotation
                      End Site
                      {
                        OFFSET 0.1475 -2.0882 0.0028
                      }
                    }
                  }
                }
                JOINT RightFinger3
                {
                  OFFSET -0.6113 -8.7231 -2.0637
                  CHANNELS 6 Xposition Yposition Zposition Zrotation Xrotation Yrotation
                  JOINT RightFinger31
                  {
                    OFFSET 0.1927 -3.8059 -0.2383
                    CHANNELS 6 Xposition Yposition Zposition Zrotation Xrotation Yrotation
                    JOINT RightFinger32
                    {
                      OFFSET 0.1091 -2.1688 -0.1362
                      CHANNELS 6 Xposition Yposition Zposition Zrotation Xrotation Yrotation
                      End Site
                      {
                        OFFSET 0.2358 -1.9176 -0.0906
                      }
                    }
                  }
                }
                JOINT RightFinger4
                {
                  OFFSET 0.6151 -8.0947 -3.564
                  CHANNELS 6 Xposition Yposition Zposition Zrotation Xrotation Yrotation
                  JOINT RightFinger41
                  {
                    OFFSET 0.4882 -2.341 -0.6462
                    CHANNELS 6 Xposition Yposition Zposition Zrotation Xrotation Yrotation
                    JOINT RightFinger42
                    {
                      OFFSET 0.3574 -1.7166 -0.4742
                      CHANNELS 6 Xposition Yposition Zposition Zrotation Xrotation Yrotation
                      End Site
                      {
                        OFFSET 0.4187 -1.5237 -0.3496
                      }
                    }
                  }
                }
                JOINT RightFinger0
                {
                  OFFSET 1.4199 -1.8761 1.4221
                  CHANNELS 6 Xposition Yposition Zposition Zrotation Xrotation Yrotation
                  JOINT RightFinger01
                  {
                    OFFSET 1.1472 -3.4929 2.6336
                    CHANNELS 6 Xposition Yposition Zposition Zrotation Xrotation Yrotation
                    JOINT RightFinger02
                    {
                      OFFSET 0.8229 -2.3 1.6571
                      CHANNELS 6 Xposition Yposition Zposition Zrotation Xrotation Yrotation
                      End Site
                      {
                        OFFSET 0.5822 -1.6914 1.1582
                      }
                    }
                  }
                }
              }
            }
          }
        }
      }
    }
  }
  JOINT RightHip
  {
    OFFSET -9.412 3.9771 -0.7758
    CHANNELS 6 Xposition Yposition Zposition Zrotation Xrotation Yrotation
    JOINT RightKnee
    {
      OFFSET -0.7531 -40.938 0
      CHANNELS 6 Xposition Yposition Zposition Zrotation Xrotation Yrotation
      JOINT RightAnkle
      {
        OFFSET 0 -40.1986 0
        CHANNELS 6 Xposition Yposition Zposition Zrotation Xrotation Yrotation
        JOINT RightToe
        {
          OFFSET 0 -4.4182 9.239
          CHANNELS 6 Xposition Yposition Zposition Zrotation Xrotation Yrotation
          End Site
          {
            OFFSET 0 0 6.1981
          }
        }
      }
    }
  }
  JOINT LeftHip
  {
    OFFSET 9.4119 3.9773 -0.7758
    CHANNELS 6 Xposition Yposition Zposition Zrotation Xrotation Yrotation
    JOINT LeftKnee
    {
      OFFSET 0.7532 -40.9383 0
      CHANNELS 6 Xposition Yposition Zposition Zrotation Xrotation Yrotation
      JOINT LeftAnkle
      {
        OFFSET 0 -40.1986 0
        CHANNELS 6 Xposition Yposition Zposition Zrotation Xrotation Yrotation
        JOINT LeftToe
        {
          OFFSET 0 -4.4182 9.239
          CHANNELS 6 Xposition Yposition Zposition Zrotation Xrotation Yrotation
          End Site
          {
            OFFSET 0 0 6.1981
          }
        }
      }
    }
  }
}
MOTION
Frames:	4
Frame Time:	0.0333333
-6.94882 14.051 38.6323 -180 84.0016 180 0 8.7983 -4.7612 -0.125581 -2.16175 -0.416651 0 8.0291 0.4195 -0.267188 -4.32244 -0.838942 0 9.9351 -2.2114 -0.267188 -4.32244 -0.838942 0 22.3885 -0.4656 -1.63179e-005 -35.9523 -1.95954e-005 -0.0001 12.643 3.4389 2.44685e-007 -15.0017 9.51244e-008 2.2603 21.606 7.4023 -1.03111 -13.6507 -38.817 13.5163 -1.1332 -5.0146 95.1436 -5.92786 9.64919 -0.0995 -28.05 -0.2431 41.0658 -40.9021 24.1923 0.0679 -23.3996 -0.1402 14.0685 -0.931042 11.5097 0.7932 -9.069 2.5189 -3.18055e-015 -1.59028e-015 3.08116e-015 -0.8272 -3.3923 0.5977 2.20695e-032 -7.95139e-016 1.59028e-015 -0.5649 -2.3158 0.4082 3.18055e-015 -7.95139e-016 -1.98785e-016 0.9159 -9.2044 0.2193 -3.18055e-015 -1.59028e-015 3.08116e-015 0.0117 -4.1944 -0.0248 -0.0127542 0.00230693 8.33919e-005 0.0071 -2.3249 -0.0142 2.20695e-032 -7.95139e-016 1.59028e-015 0.6113 -8.7231 -2.0637 -3.18055e-015 -1.59028e-015 3.08116e-015 -0.1927 -3.8059 -0.2383 -0.0160203 0.00298758 0.000859249 -0.1091 -2.1688 -0.1362 -3.18055e-015 3.97569e-016 2.98177e-016 -0.6151 -8.0947 -3.5641 -3.18055e-015 -1.59028e-015 3.08116e-015 -0.4882 -2.341 -0.6462 -0.0125772 0.00313862 0.00283288 -0.3575 -1.7167 -0.4742 -3.18055e-015 -7.95139e-016 3.37934e-015 -1.42 -1.8761 1.4223 -3.18055e-015 -1.59028e-015 3.08116e-015 -1.1471 -3.4929 2.6334 2.20695e-032 -7.95139e-016 1.59028e-015 -0.823 -2.3 1.6571 3.18055e-015 -7.95139e-016 -1.98785e-016 -2.2603 21.606 7.4023 0.50917 -14.2954 33.1504 -13.5187 -1.1334 -5.0155 -95.749 -10.6862 -10.5155 0.0994 -28.0499 -0.2431 -34.9383 -42.8096 -21.0052 -0.0679 -23.3996 -0.1402 -13.8672 1.02691 -11.4529 -0.7932 -9.0691 2.5189 3.18055e-015 0 -0 0.8272 -3.3923 0.5977 6.36111e-015 -3.97569e-016 -1.98785e-016 0.565 -2.3158 0.4082 9.54166e-015 3.97569e-016 1.78906e-015 -0.916 -9.2044 0.2193 3.18055e-015 0 -0 -0.0117 -4.1944 -0.0248 0.0129387 0.00230376 -7.98452e-005 -0.0071 -2.3249 -0.0142 -2.83472e-006 1.84208e-006 3.86948e-007 -0.6113 -8.7231 -2.0637 3.18055e-015 0 -0 0.1927 -3.8059 -0.2383 0.0162668 0.00302314 -0.000866186 0.1091 -2.1688 -0.1362 -3.18055e-015 -3.97569e-016 -9.93923e-016 0.6151 -8.0947 -3.564 3.18055e-015 0 -0 0.4882 -2.341 -0.6462 0.0145501 0.00367485 -0.00325637 0.3574 -1.7166 -0.4742 6.36111e-015 3.97569e-016 2.78299e-015 1.4199 -1.8761 1.4221 3.18055e-015 0 -0 1.1472 -3.4929 2.6336 6.36111e-015 -3.97569e-016 -1.98785e-016 0.8229 -2.3 1.6571 9.54166e-015 3.97569e-016 1.78906e-015 -9.412 3.9771 -0.7758 -98.7126 -33.4003 -105.348 -0.7531 -40.938 0 -65.5853 81.1865 74.3211 0 -40.1986 0 -39.8859 27.1845 65.9017 -7.10543e-015 -4.4182 9.239 2.97401e-007 -6.44533e-009 3.04387e-007 9.4119 3.9773 -0.7758 98.729 -33.6975 105.101 0.7532 -40.9383 0 65.4687 81.2237 -74.2174 0 -40.1986 0 39.5 27.343 -65.6499 7.10543e-015 -4.4182 9.239 -5.95293e-007 -7.11012e-008 -6.08409e-007 
-6.9488 14.2908 38.5987 -180 83.2498 -180 0 8.7983 -4.7612 -0.123498 -2.46811 -0.418289 8.88179e-016 8.0291 0.4195 -0.265418 -4.93524 -0.843082 -8.88179e-016 9.9351 -2.2114 -0.265418 -4.93522 -0.843081 0 22.3885 -0.4656 1.82097e-006 -35.5394 2.10541e-006 -0.0001 12.643 3.4389 1.80148e-007 -15.0017 -5.10898e-008 2.2603 21.606 7.4023 -1.43843 -13.177 -38.746 13.5163 -1.1332 -5.0146 95.1436 -5.92788 9.64916 -0.0995 -28.05 -0.2431 41.4183 -41.1407 24.4196 0.0679 -23.3996 -0.1402 13.662 -0.910082 11.2326 0.7932 -9.069 2.5189 -3.18055e-015 0 -9.93923e-017 -0.8272 -3.3923 0.5977 -0 0 1.59028e-015 -0.5649 -2.3158 0.4082 -0 -3.97569e-016 -0 0.9159 -9.2044 0.2193 -3.18055e-015 0 -9.93923e-017 0.0117 -4.1944 -0.0248 -0.0128448 0.00231982 7.53769e-005 0.0071 -2.3249 -0.0142 -2.73487e-022 3.58306e-006 4.37326e-015 0.6113 -8.7231 -2.0637 -3.18055e-015 0 -9.93923e-017 -0.1927 -3.8059 -0.2383 -0.0160738 0.00300761 0.000858386 -0.1091 -2.1688 -0.1362 -5.90366e-006 -3.73392e-006 6.11127e-007 -0.6151 -8.0947 -3.5641 -3.18055e-015 0 -9.93923e-017 -0.4882 -2.341 -0.6462 -0.0125685 0.00311641 0.00281897 -0.3575 -1.7167 -0.4742 6.36111e-015 0 2.48481e-015 -1.42 -1.8761 1.4223 -3.18055e-015 0 -9.93923e-017 -1.1471 -3.4929 2.6334 -0 0 1.59028e-015 -0.823 -2.3 1.6571 -0 -3.97569e-016 -0 -2.2603 21.606 7.4023 0.935979 -13.7884 33.0418 -13.5187 -1.1334 -5.0155 -95.7609 -10.7187 -10.5157 0.0994 -28.0499 -0.2431 -35.264 -43.0691 -21.2328 -0.0679 -23.3996 -0.1402 -13.497 1.02002 -11.169 -0.7932 -9.0691 2.5189 3.18055e-015 0 1.98785e-015 0.8272 -3.3923 0.5977 1.37935e-032 -7.95139e-016 9.93923e-016 0.565 -2.3158 0.4082 1.59062e-006 -1.6196e-006 1.02121e-007 -0.916 -9.2044 0.2193 3.18055e-015 0 1.98785e-015 -0.0117 -4.1944 -0.0248 0.0129608 0.00232943 -9.65136e-005 -0.0071 -2.3249 -0.0142 -2.20695e-032 -3.97569e-016 -3.18055e-015 -0.6113 -8.7231 -2.0637 3.18055e-015 0 1.98785e-015 0.1927 -3.8059 -0.2383 0.0163619 0.00303868 -0.000873719 0.1091 -2.1688 -0.1362 7.50093e-007 2.68523e-006 -1.06465e-005 0.6151 -8.0947 -3.564 3.18055e-015 0 1.98785e-015 0.4882 -2.341 -0.6462 0.0145805 0.00367761 -0.00326762 0.3574 -1.7166 -0.4742 1.59203e-005 4.71681e-006 -2.35232e-006 1.4199 -1.8761 1.4221 3.18055e-015 0 1.98785e-015 1.1472 -3.4929 2.6336 1.37935e-032 -7.95139e-016 9.93923e-016 0.8229 -2.3 1.6571 1.59062e-006 -1.6196e-006 1.02121e-007 -9.412 3.9771 -0.7758 -99.3557 -34.0744 -105.719 -0.7531 -40.938 0 -65.7778 81.1997 74.512 0 -40.1986 0 -38.9844 27.7354 65.2301 0 -4.4182 9.239 -2.972e-007 -6.86894e-009 -3.04698e-007 9.4119 3.9773 -0.7758 99.3735 -34.3485 105.493 0.7532 -40.9383 -7.10543e-015 65.6629 81.2371 -74.4099 0 -40.1986 0 38.627 27.8794 -64.9973 0 -4.4182 9.239 -6.03221e-007 4.98918e-008 1.20095e-006 
-6.94877 14.5312 38.5664 -180 82.4982 -180 0 8.7983 -4.7612 -0.121408 -2.77395 -0.419849 -8.88179e-016 8.0291 0.4195 -0.263654 -5.54689 -0.847081 8.88179e-016 9.9351 -2.2114 -0.263655 -5.5469 -0.847081 0 22.3885 -0.4656 -8.15073e-007 -35.1267 -1.22855e-006 -0.0001 12.643 3.4389 1.33684e-007 -15.0017 1.24682e-007 2.2603 21.606 7.4023 -1.84552 -12.704 -38.6716 13.5163 -1.1332 -5.0146 95.1438 -5.92776 9.64919 -0.0995 -28.05 -0.2431 41.7731 -41.3784 24.6496 0.0679 -23.3996 -0.1402 13.2557 -0.887173 10.9557 0.7932 -9.069 2.5189 6.36111e-015 -7.95139e-016 9.93923e-016 -0.8272 -3.3923 0.5977 3.18055e-015 0 -3.97569e-016 -0.5649 -2.3158 0.4082 1.24141e-032 3.97569e-016 -1.78906e-015 0.9159 -9.2044 0.2193 6.36111e-015 -7.95139e-016 9.93923e-016 0.0117 -4.1944 -0.0248 -0.0127521 0.00230841 8.66306e-005 0.0071 -2.3249 -0.0142 -1.51728e-032 -7.95139e-016 -1.09332e-015 0.6113 -8.7231 -2.0637 6.36111e-015 -7.95139e-016 9.93923e-016 -0.1927 -3.8059 -0.2383 -0.0160364 0.00299537 0.000863464 -0.1091 -2.1688 -0.1362 3.18055e-015 -4.37326e-015 1.08338e-014 -0.6151 -8.0947 -3.5641 6.36111e-015 -7.95139e-016 9.93923e-016 -0.4882 -2.341 -0.6462 -0.0125626 0.0031109 0.00282005 -0.3575 -1.7167 -0.4742 3.18055e-015 7.95139e-016 -8.94531e-016 -1.42 -1.8761 1.4223 6.36111e-015 -7.95139e-016 9.93923e-016 -1.1471 -3.4929 2.6334 3.18055e-015 0 -3.97569e-016 -0.823 -2.3 1.6571 1.24141e-032 3.97569e-016 -1.78906e-015 -2.2603 21.606 7.4023 1.36278 -13.2824 32.9296 -13.5187 -1.1334 -5.0155 -95.7678 -10.7538 -10.515 0.0994 -28.0499 -0.2431 -35.5969 -43.3263 -21.462 -0.0679 -23.3996 -0.1402 -13.1268 1.01496 -10.885 -0.7932 -9.0691 2.5189 8.44335e-007 -6.57627e-006 5.69756e-006 0.8272 -3.3923 0.5977 -3.18055e-015 -6.36111e-015 -1.27222e-014 0.565 -2.3158 0.4082 -1.03451e-030 -5.96354e-015 -9.93923e-015 -0.916 -9.2044 0.2193 8.44335e-007 -6.57627e-006 5.69756e-006 -0.0117 -4.1944 -0.0248 0.0129758 0.00231461 -9.47002e-005 -0.0071 -2.3249 -0.0142 -5.83463e-031 -3.57812e-015 -9.34288e-015 -0.6113 -8.7231 -2.0637 8.44335e-007 -6.57627e-006 5.69756e-006 0.1927 -3.8059 -0.2383 0.0163287 0.00302865 -0.000869486 0.1091 -2.1688 -0.1362 3.18055e-015 -7.95139e-016 1.78906e-015 0.6151 -8.0947 -3.564 8.44335e-007 -6.57627e-006 5.69756e-006 0.4882 -2.341 -0.6462 0.014624 0.00367174 -0.00326751 0.3574 -1.7166 -0.4742 4.68978e-032 -7.95139e-016 3.37934e-015 1.4199 -1.8761 1.4221 8.44335e-007 -6.57627e-006 5.69756e-006 1.1472 -3.4929 2.6336 -3.18055e-015 -6.36111e-015 -1.27222e-014 0.8229 -2.3 1.6571 -1.03451e-030 -5.96354e-015 -9.93923e-015 -9.412 3.9771 -0.7758 -100.01 -34.7454 -106.102 -0.7531 -40.938 -7.10543e-015 -65.9737 81.213 74.7066 -7.10543e-015 -40.1986 7.10543e-015 -38.071 28.2768 64.5451 0 -4.4182 9.239 -3.97569e-015 -3.18055e-015 1.59028e-015 9.4119 3.9773 -0.7758 100.029 -34.9964 105.898 0.7532 -40.9383 7.10543e-015 65.8605 81.2505 -74.6059 0 -40.1986 7.10543e-015 37.7426 28.4069 -64.3321 0 -4.4182 9.239 2.97202e-007 -2.46437e-006 3.04867e-007 
-6.94874 14.772 38.5354 180 81.7467 -180 0 8.7983 -4.7612 -0.119312 -3.079 -0.421334 0 8.0291 0.4195 -0.261901 -6.15701 -0.850944 0 9.9351 -2.2114 -0.261902 -6.15703 -0.850946 0 22.3885 -0.4656 -9.27763e-007 -34.714 -1.7298e-006 -0.0001 12.643 3.4389 -4.76264e-007 -15.0017 -7.29395e-008 2.2603 21.606 7.4023 -2.25242 -12.2316 -38.594 13.5163 -1.1332 -5.0146 95.1436 -5.92786 9.64917 -0.0995 -28.05 -0.2431 42.1306 -41.6149 24.8824 0.0679 -23.3996 -0.1402 12.8495 -0.862336 10.679 0.7932 -9.069 2.5189 -3.03241e-006 4.8706e-006 6.52305e-006 -0.8272 -3.3923 0.5977 -1.62991e-006 -1.66978e-006 -6.2236e-008 -0.5649 -2.3158 0.4082 3.18055e-015 1.27222e-014 -9.93923e-017 0.9159 -9.2044 0.2193 -3.03241e-006 4.8706e-006 6.52305e-006 0.0117 -4.1944 -0.0248 -0.0128555 0.0023227 8.46688e-005 0.0071 -2.3249 -0.0142 1.62979e-006 3.44164e-006 6.23028e-008 0.6113 -8.7231 -2.0637 -3.03241e-006 4.8706e-006 6.52305e-006 -0.1927 -3.8059 -0.2383 -0.0159589 0.00297428 0.000856242 -0.1091 -2.1688 -0.1362 9.54166e-015 7.95139e-016 -5.96354e-016 -0.6151 -8.0947 -3.5641 -3.03241e-006 4.8706e-006 6.52305e-006 -0.4882 -2.341 -0.6462 -0.0126259 0.0031293 0.00283089 -0.3575 -1.7167 -0.4742 -3.18055e-015 1.23246e-014 1.2921e-015 -1.42 -1.8761 1.4223 -3.03241e-006 4.8706e-006 6.52305e-006 -1.1471 -3.4929 2.6334 -1.62991e-006 -1.66978e-006 -6.2236e-008 -0.823 -2.3 1.6571 3.18055e-015 1.27222e-014 -9.93923e-017 -2.2603 21.606 7.4023 1.78963 -12.7773 32.8138 -13.5187 -1.1334 -5.0155 -95.7801 -10.7861 -10.5153 0.0994 -28.0499 -0.2431 -35.9278 -43.5839 -21.6957 -0.0679 -23.3996 -0.1402 -12.7566 1.01173 -10.6011 -0.7932 -9.0691 2.5189 3.18055e-015 -2.78299e-015 -1.09332e-014 0.8272 -3.3923 0.5977 3.18055e-015 -2.38542e-015 -1.21259e-014 0.565 -2.3158 0.4082 -4.88288e-031 -2.38542e-015 -1.17283e-014 -0.916 -9.2044 0.2193 3.18055e-015 -2.78299e-015 -1.09332e-014 -0.0117 -4.1944 -0.0248 0.0130028 0.00232819 -9.33743e-005 -0.0071 -2.3249 -0.0142 3.18055e-015 7.95139e-016 -1.98785e-016 -0.6113 -8.7231 -2.0637 3.18055e-015 -2.78299e-015 -1.09332e-014 0.1927 -3.8059 -0.2383 0.0162776 0.00302365 -0.000869138 0.1091 -2.1688 -0.1362 -1.15865e-030 -4.77083e-015 -1.39149e-014 0.6151 -8.0947 -3.564 3.18055e-015 -2.78299e-015 -1.09332e-014 0.4882 -2.341 -0.6462 0.0144775 0.00364908 -0.00323712 0.3574 -1.7166 -0.4742 1.27222e-014 -1.19271e-015 1.19271e-015 1.4199 -1.8761 1.4221 3.18055e-015 -2.78299e-015 -1.09332e-014 1.1472 -3.4929 2.6336 3.18055e-015 -2.38542e-015 -1.21259e-014 0.8229 -2.3 1.6571 -4.88288e-031 -2.38542e-015 -1.17283e-014 -9.412 3.9771 -0.7758 -100.676 -35.4134 -106.499 -0.7531 -40.938 7.10543e-015 -66.1738 81.2264 74.9055 -7.10543e-015 -40.1986 0 -37.1455 28.8082 63.8465 7.10543e-015 -4.4182 9.239 1.9617e-006 1.57229e-005 7.98373e-007 9.4119 3.9773 -0.7758 100.697 -35.6409 106.315 0.7532 -40.9383 7.10543e-015 66.0615 81.264 -74.8056 -3.55271e-015 -40.1986 0 36.8467 28.9251 -63.654 0 -4.4182 9.239 -3.43606e-007 -7.27275e-006 -3.35869e-007 
